# xmcd
#
# Track frame offsets: 
#        150
#        10160
#        22392
#        34898
#        49837
#        64257
#        81377
#        94249
#        110523
#        123559
#        137270
#        146995
#        158300
#        172528
#        186457
#        198059
#        208782
#        222243
#        232612
#        248829
#        263837
#        278293
#        292207
#        301352
#        312178
#
# Disc length: 4291 seconds
#
# Revision: 0
# Processed by: cddbd v1.5.2PL0 Copyright (c) Steve Scherf et al.
# Submitted via: ExactAudioCopy v1.0b1
#
DISCID=6510c119
DTITLE=Various Artist - King of the Road, Oh, My Darling
DYEAR=2010
DGENRE=Country
TTITLE0=Freddy Quinn - Oh, My Darling Clementine
TTITLE1=Tom Astor and Claudia Jung - Wer Liebe sucht
TTITLE2=Ralf Paulson - Kleine Annabell
TTITLE3=Alabama - Love In The First Degree
TTITLE4=Bellamy Brothers - If I Said You HAd A Beatiful Body
TTITLE5=Linda Feller - Du bist das Salz in meiner Suppe
TTITLE6=Jonny Hill - Mein Lied für dich
TTITLE7=Kenny Rogers - Lucille
TTITLE8=Lynn Anderson - Rose Garden
TTITLE9=Volker Lechtenbrink - Meine Tür steht immer offen
TTITLE10=Martin Lauer - Die letzte Rose der Prärie
TTITLE11=Boby Bare - Alabama Rose
TTITLE12=Loretta Doherty - Poor Poor Pityful Me
TTITLE13=Tom Astor - Du bist da (wenn's drum geht)
TTITLE14=Conaway Twitty - To See An Angel Cry
TTITLE15=Billie Jo Spears - I'm So Lonesome I Could Cry
TTITLE16=Freddy Quinn - Oh, nur mit dir
TTITLE17=Peter Held - Du bist die schönste Frau aus Texas
TTITLE18=Mickey Gilley - Stand By Me
TTITLE19=Conway Twitty - (Lost Her Love) On Our Last Date
TTITLE20=Jonny Hill - Wenn ich dich verliere
TTITLE21=Dolly Parton - I Will Always Love You
TTITLE22=Ralf Paulson - Tränen in deinen Augen
TTITLE23=Peter Hinnen - Die Rose von Mexiko
TTITLE24=Bobbejaan - Wie ne Kneipe ohne Bier
EXTD=
EXTT0=
EXTT1=
EXTT2=
EXTT3=
EXTT4=
EXTT5=
EXTT6=
EXTT7=
EXTT8=
EXTT9=
EXTT10=
EXTT11=
EXTT12=
EXTT13=
EXTT14=
EXTT15=
EXTT16=
EXTT17=
EXTT18=
EXTT19=
EXTT20=
EXTT21=
EXTT22=
EXTT23=
EXTT24=
PLAYORDER=
